<svg width="100" height="88" xmlns="http://www.w3.org/2000/svg" xmlns:xlink="http://www.w3.org/1999/xlink" xml:space="preserve" overflow="hidden"><defs><linearGradient x1="1.6591" y1="0" x2="1.6591" y2="76.8115" gradientUnits="userSpaceOnUse" spreadMethod="pad" id="fill0"><stop offset="0" stop-color="#8899FD" stop-opacity="1"/><stop offset="1" stop-color="#687BEA" stop-opacity="1"/></linearGradient><linearGradient x1="1.6591" y1="0" x2="1.6591" y2="76.8115" gradientUnits="userSpaceOnUse" spreadMethod="pad" id="fill1"><stop offset="0" stop-color="#FFFFFF" stop-opacity="1"/><stop offset="1" stop-color="#E2E2E2" stop-opacity="1"/></linearGradient></defs><g transform="translate(-2246 -868)"><g><g><g><g><path d="M68.8807 7.58399C67.2942 10.0622 66.3804 13.0001 66.3804 16.1343 66.3804 24.9726 73.6652 32.2572 82.5036 32.2572 85.8218 32.2572 88.924 31.2277 91.5026 29.4723 92.6938 32.8973 93.3199 36.5842 93.3199 40.4702 93.3199 61.5152 74.8883 76.8115 49.3424 76.8115 40.431 76.8115 32.4062 75.0343 25.6612 71.6593 21.8391 74.5807 16.157 76.8115 11.1213 76.8115 9.76031 76.8115 9.37141 75.4394 10.4068 74.6066 12.6329 72.6007 14.0247 70.5932 14.0247 67.2879 14.0247 59.8917 5.34679 55.867 5.34679 40.4702 5.34679 19.3845 23.7785 4.15761 49.3424 4.15761 56.5071 4.15761 63.1136 5.35642 68.8807 7.58399Z" fill="url(#fill0)" fill-rule="nonzero" transform="matrix(1.00379 0 0 1 2247 868.047)"/><path d="M82.5036 28.6441C89.3424 28.6441 95.0132 22.9959 95.0132 16.1456 95.0132 9.28395 89.3424 3.63586 82.5036 3.63586 75.6531 3.63586 69.9936 9.28395 69.9936 16.1456 69.9936 22.9959 75.6531 28.6441 82.5036 28.6441Z" fill="url(#fill1)" fill-rule="nonzero" transform="matrix(1.00379 0 0 1 2247 868.047)"/></g></g></g></g></g></svg>