<svg width="107" height="107" xmlns="http://www.w3.org/2000/svg" xmlns:xlink="http://www.w3.org/1999/xlink" xml:space="preserve" overflow="hidden"><defs><linearGradient x1="2.19227" y1="0" x2="2.19227" y2="104.947" gradientUnits="userSpaceOnUse" spreadMethod="pad" id="fill0"><stop offset="0" stop-color="#FFFFFF" stop-opacity="1"/><stop offset="1" stop-color="#E2E2E2" stop-opacity="1"/></linearGradient><linearGradient x1="2.19227" y1="0" x2="2.19227" y2="104.947" gradientUnits="userSpaceOnUse" spreadMethod="pad" id="fill1"><stop offset="0" stop-color="#DCFB78" stop-opacity="1"/><stop offset="1" stop-color="#C0E156" stop-opacity="1"/></linearGradient></defs><g transform="translate(-2085 -1129)"><g><g><g><g><path d="M52.4733 104.947C81.4888 104.947 104.985 81.4502 104.985 52.4733 104.985 23.4578 81.4888 0 52.4733 0 23.4963 0 0 23.4578 0 52.4733 0 81.4502 23.4963 104.947 52.4733 104.947ZM52.4733 100.857C25.7379 100.857 4.0893 79.2084 4.0893 52.4733 4.0893 25.6993 25.7379 4.05076 52.4733 4.05076 79.247 4.05076 100.896 25.6993 100.896 52.4733 100.896 79.2084 79.247 100.857 52.4733 100.857Z" fill="url(#fill0)" fill-rule="nonzero" transform="matrix(1 0 0 1.00952 2086.01 1130)"/><path d="M39.1205 84.3466 48.4719 73.2143C49.3282 72.105 49.4887 71.9147 49.8873 70.752L50.737 68.0099 45.8899 61.9254 44.2992 69.491 35.0164 80.4865C32.1113 83.8499 36.7591 87.1212 39.1205 84.3466ZM62.1074 83.4369C63.9568 87.2132 69.5295 84.8969 67.4807 80.8228L61.1266 67.9388C60.6452 67.029 60.0414 65.9974 59.3754 65.1174L55.2693 59.3368 55.5367 58.4182C56.5838 55.207 57.1274 53.2804 57.3265 50.1074L57.9302 41.1458C58.2749 36.7719 55.6591 33.7148 51.424 33.7148 48.2751 33.7148 46.0806 35.374 43.0683 38.3176L38.2813 43.0126C36.8447 44.4491 36.2325 45.6566 36.0483 47.6603L35.5517 55.0465C35.4296 56.828 36.3695 58.0736 38.0437 58.1271 39.6793 58.288 40.6577 57.3094 40.8332 55.4061L41.4755 47.2859 43.8541 45.1901C44.6955 44.4408 46.0122 44.8301 45.9201 45.8943L45.3848 52.7302C45.1173 56.1405 45.935 57.7378 48.3136 60.7197L54.5905 68.5877C55.2566 69.4524 55.3635 69.7352 55.631 70.2705ZM72.8565 45.9412 65.6312 45.9412 60.6193 40.4093 60.1374 47.5792 62.5353 49.9386C63.4754 50.9167 64.3317 51.2228 66.1127 51.2228L72.8565 51.2228C74.638 51.2228 75.8152 50.206 75.8152 48.5706 75.8152 46.9733 74.638 45.9412 72.8565 45.9412ZM54.7874 30.7775C58.4507 30.7775 61.4563 27.7567 61.4563 24.0936 61.4563 20.4306 58.4507 17.5018 54.7874 17.5018 51.1097 17.5018 48.1422 20.4306 48.1422 24.0936 48.1422 27.7567 51.1097 30.7775 54.7874 30.7775Z" fill="url(#fill1)" fill-rule="nonzero" transform="matrix(1 0 0 1.00952 2086.01 1130)"/></g></g></g></g></g></svg>