<svg width="92" height="91" xmlns="http://www.w3.org/2000/svg" xmlns:xlink="http://www.w3.org/1999/xlink" xml:space="preserve" overflow="hidden"><defs><linearGradient x1="1.87909" y1="0.045876" x2="1.87909" y2="90" gradientUnits="userSpaceOnUse" spreadMethod="pad" id="fill0"><stop offset="0" stop-color="#8899FD" stop-opacity="1"/><stop offset="1" stop-color="#687BEA" stop-opacity="1"/></linearGradient><linearGradient x1="1.87909" y1="0.045876" x2="1.87909" y2="90" gradientUnits="userSpaceOnUse" spreadMethod="pad" id="fill1"><stop offset="0" stop-color="#FFFFFF" stop-opacity="1"/><stop offset="1" stop-color="#E2E2E2" stop-opacity="1"/></linearGradient></defs><g transform="translate(-2265 -1638)"><g><g><g><g><path d="M44.9771 90C69.7483 90 89.9872 69.7942 89.9872 45.0229 89.9872 20.2645 69.7483 0.045876 44.9771 0.045876 20.2516 0.045876 0 20.2645 0 45.0229 0 69.7942 20.2516 90 44.9771 90Z" fill="url(#fill0)" fill-rule="nonzero" transform="matrix(1.01111 0 0 1 2266.01 1639)"/><path d="M28.1423 63.7864 28.1423 44.5347C28.1423 40.8224 29.7498 39.2169 33.0639 39.1654L33.0639 32.5777C33.0639 24.8852 37.8644 19.7525 44.9771 19.7525 52.1229 19.7525 56.9232 24.8852 56.9232 32.5777L56.9232 39.1654C60.2044 39.2169 61.8449 40.8224 61.8449 44.5347L61.8449 63.7864C61.8449 67.5167 60.186 69.1557 56.7635 69.1557L33.2236 69.1557C29.8012 69.1557 28.1423 67.5167 28.1423 63.7864ZM35.9707 39.1527 54.0166 39.1527 54.0166 32.4566C54.0166 26.5551 50.3757 22.6079 44.9771 22.6079 39.5785 22.6079 35.9707 26.5551 35.9707 32.4566Z" fill="url(#fill1)" fill-rule="nonzero" transform="matrix(1.01111 0 0 1 2266.01 1639)"/></g></g></g></g></g></svg>