<svg width="92" height="92" xmlns="http://www.w3.org/2000/svg" xmlns:xlink="http://www.w3.org/1999/xlink" xml:space="preserve" overflow="hidden"><defs><linearGradient x1="1535.91" y1="1992" x2="1535.91" y2="2082.95" gradientUnits="userSpaceOnUse" spreadMethod="pad" id="fill0"><stop offset="0" stop-color="#8899FD" stop-opacity="1"/><stop offset="1" stop-color="#687BEA" stop-opacity="1"/></linearGradient><linearGradient x1="1535.91" y1="1992" x2="1535.91" y2="2082.95" gradientUnits="userSpaceOnUse" spreadMethod="pad" id="fill1"><stop offset="0" stop-color="#FFFFFF" stop-opacity="1"/><stop offset="1" stop-color="#E2E2E2" stop-opacity="1"/></linearGradient></defs><g transform="translate(-1533 -1992)"><g><g><g><g><path d="M1579.48 2082.95C1604.53 2082.95 1624.99 2062.51 1624.99 2037.48 1624.99 2012.43 1604.53 1992 1579.48 1992 1554.48 1992 1534.01 2012.43 1534.01 2037.48 1534.01 2062.51 1554.48 2082.95 1579.48 2082.95Z" fill="url(#fill0)" fill-rule="nonzero"/><path d="M1579.48 2062.53C1578.94 2062.53 1578.47 2062.02 1578.47 2061.49L1578.47 2056.91C1572.61 2056.58 1566.95 2053.81 1565.58 2048.06 1565.49 2047.71 1565.43 2047.34 1565.43 2047 1565.43 2046.07 1566.02 2045.5 1566.88 2045.5 1567.65 2045.5 1568.23 2045.84 1568.44 2046.78 1569.32 2051.42 1573.38 2053.88 1578.47 2054.19L1578.47 2038.11 1577.28 2037.79C1571.66 2036.5 1566.27 2033.91 1566.27 2027.86 1566.27 2021.6 1572.16 2017.96 1578.47 2017.56L1578.47 2013.37C1578.47 2012.84 1578.94 2012.33 1579.48 2012.33 1580.06 2012.33 1580.53 2012.84 1580.53 2013.37L1580.53 2017.56C1587.26 2017.96 1592.87 2022.35 1592.87 2027.06 1592.87 2027.93 1592.15 2028.45 1591.34 2028.45 1590.65 2028.45 1590.02 2027.97 1589.82 2027.1 1588.9 2022.86 1585.06 2020.6 1580.53 2020.32L1580.53 2035.56 1582.24 2035.95C1588.57 2037.45 1593.57 2040.03 1593.57 2046.22 1593.57 2053.19 1587.33 2056.58 1580.53 2056.91L1580.53 2061.49C1580.53 2062.02 1580.06 2062.53 1579.48 2062.53ZM1569.38 2027.68C1569.38 2032.29 1573.96 2033.98 1577.85 2034.89L1578.47 2035.05 1578.47 2020.32C1574 2020.66 1569.38 2022.94 1569.38 2027.68ZM1580.53 2054.2C1585.69 2053.94 1590.54 2051.7 1590.54 2046.43 1590.54 2041.73 1586.27 2039.93 1581.66 2038.85L1580.53 2038.57Z" fill="url(#fill1)" fill-rule="nonzero"/></g></g></g></g></g></svg>