<svg width="175" height="105" xmlns="http://www.w3.org/2000/svg" xmlns:xlink="http://www.w3.org/1999/xlink" xml:space="preserve" overflow="hidden"><defs><linearGradient x1="1.98661" y1="0" x2="1.98661" y2="104.754" gradientUnits="userSpaceOnUse" spreadMethod="pad" id="fill0"><stop offset="0" stop-color="#FFFFFF" stop-opacity="1"/><stop offset="1" stop-color="#E2E2E2" stop-opacity="1"/></linearGradient><linearGradient x1="1.98661" y1="0" x2="1.98661" y2="104.754" gradientUnits="userSpaceOnUse" spreadMethod="pad" id="fill1"><stop offset="0" stop-color="#DCFB78" stop-opacity="1"/><stop offset="1" stop-color="#C0E156" stop-opacity="1"/></linearGradient></defs><g transform="translate(-1553 -1128)"><g><g><g><g><path d="M84.1111 60.2717 61.3139 99.7477C60.7978 100.599 59.8025 100.867 58.9506 100.407 58.1127 99.9125 57.7964 98.8549 58.2911 97.982L82.0994 56.7892ZM116.444 4.15928C119.515 4.39402 123.451 6.07215 126.629 7.96956 138.231 14.7578 142.79 25.4688 155.134 32.6082 160.485 35.6715 165.1 36.6473 167.165 37.7551 168.765 38.7213 169.301 40.1684 168.377 41.7538L148.147 76.8162C146.942 78.8883 145.038 79.3964 142.734 79.2315 139.698 78.9618 135.775 77.3188 132.632 75.4077 120.995 68.6195 116.387 57.9569 104.127 50.769 98.9622 47.8745 94.4088 46.5923 92.3738 45.9638L90.8679 48.5714 88.8587 45.0944 111.115 6.58831C112.319 4.51628 114.153 3.99436 116.444 4.15928ZM119.669 59.34C123.273 63.1658 126.641 67.0401 131.078 70.2489L138.011 58.1838C133.485 55.066 130.655 52.3599 126.394 47.6766ZM138.011 58.1838C138.409 58.5136 139.505 59.1521 140.439 59.7262 143.616 61.5189 146.804 63.0379 151.378 64.1011L158.303 52.166C156.104 51.5974 151.718 50.3149 147.349 47.7561 146.421 47.244 145.556 46.6559 144.922 46.2137ZM100.706 31.6168 94.2499 42.7197C99.4143 44.4309 103.128 46.1807 105.844 47.7327 106.563 48.1828 107.27 48.5496 107.976 49.0132L114.909 36.8569C113.941 36.2283 113.361 35.8209 111.691 34.8431 106.884 32.0611 102.6 31.1163 100.706 31.6168ZM114.909 36.8569C119.505 40.1279 122.555 43.4821 126.394 47.6766L133.305 35.6929C129.708 31.741 126.526 28.2975 121.834 24.9354ZM133.305 35.6929C137.049 39.8466 141.003 43.6955 144.922 46.2137L151.567 34.4979C146.777 31.4559 143.207 27.9075 139.853 24.3243ZM107.617 19.6817C109.538 19.1676 113.808 20.1124 118.566 22.8595 119.725 23.5598 120.669 24.0759 121.834 24.9354L128.513 13.4018C127.405 12.5986 126.201 11.7605 124.864 11.0059 123.533 10.2434 118.743 7.4944 114.566 7.55841Z" fill="url(#fill0)" fill-rule="nonzero" transform="matrix(1 0 0 1.00007 1554.02 1128)"/><path d="M114.044 100.407C114.834 99.9125 115.15 98.8549 114.655 97.982L61.8451 6.58831C60.6754 4.51628 58.8068 3.99436 56.502 4.15928 53.466 4.39402 49.5297 6.07215 46.3655 7.96956 34.7638 14.7578 30.1562 25.4688 17.8117 32.6082 12.496 35.6715 7.88064 36.6473 5.81643 37.7551 4.21586 38.7213 3.69395 40.1684 4.56892 41.7538L24.7997 76.8162C26.0045 78.8883 27.9078 79.3964 30.2126 79.2315 33.2837 78.9618 37.22 77.3188 40.3143 75.4077 51.9645 68.6195 56.5584 57.9569 68.8682 50.769 73.9841 47.8745 78.5509 46.5923 80.586 45.9638L111.667 99.7477C112.162 100.599 113.157 100.867 114.044 100.407ZM51.1127 24.9354 44.4333 13.4018C45.576 12.5986 46.7807 11.7605 48.0823 11.0059 49.4483 10.2434 54.203 7.4944 58.4286 7.55841L65.3777 19.6817C63.4221 19.1676 59.1386 20.1124 54.3799 22.8595 53.2566 23.5598 52.2768 24.0759 51.1127 24.9354ZM65.0054 49.0132 58.0368 36.8569C59.0396 36.2283 59.5983 35.8209 61.2551 34.8431 66.0762 32.0611 70.3462 31.1163 72.2883 31.6168L78.6964 42.7197C73.5669 44.4309 69.8186 46.1807 67.1025 47.7327 66.3829 48.1828 65.6765 48.5496 65.0054 49.0132ZM46.5518 47.6766 39.6412 35.6929C43.2382 31.741 46.4334 28.2975 51.1127 24.9354L58.0368 36.8569C53.4891 40.1279 50.4396 43.4821 46.5518 47.6766ZM28.0378 46.2137 21.3932 34.4979C26.218 31.4559 29.7528 27.9075 33.1285 24.3243L39.6412 35.6929C35.8969 39.8466 31.9567 43.6955 28.0378 46.2137ZM41.8821 70.2489 34.9482 58.1838C39.4608 55.066 42.2913 52.3599 46.5518 47.6766L53.2777 59.34C49.7081 63.1658 46.319 67.0401 41.8821 70.2489ZM21.6027 64.1011 14.6922 52.166C16.8554 51.5974 21.2282 50.3149 25.6457 47.7561 26.5381 47.244 27.4247 46.6559 28.0378 46.2137L34.9482 58.1838C34.5505 58.5136 33.4893 59.1521 32.5561 59.7262 29.3647 61.5189 26.1559 63.0379 21.6027 64.1011Z" fill="url(#fill1)" fill-rule="nonzero" transform="matrix(1 0 0 1.00007 1554.02 1128)"/></g></g></g></g></g></svg>