<svg width="92" height="91" xmlns="http://www.w3.org/2000/svg" xmlns:xlink="http://www.w3.org/1999/xlink" xml:space="preserve" overflow="hidden"><defs><linearGradient x1="1.87909" y1="0" x2="1.87909" y2="89.9541" gradientUnits="userSpaceOnUse" spreadMethod="pad" id="fill0"><stop offset="0" stop-color="#8899FD" stop-opacity="1"/><stop offset="1" stop-color="#687BEA" stop-opacity="1"/></linearGradient><linearGradient x1="1.87909" y1="0" x2="1.87909" y2="89.9541" gradientUnits="userSpaceOnUse" spreadMethod="pad" id="fill1"><stop offset="0" stop-color="#FFFFFF" stop-opacity="1"/><stop offset="1" stop-color="#E2E2E2" stop-opacity="1"/></linearGradient></defs><g transform="translate(-1532 -1630)"><g><g><g><g><path d="M44.9771 89.9541C69.7483 89.9541 89.9872 69.7355 89.9872 44.9771 89.9872 20.2057 69.7483 0 44.9771 0 20.2516 0 0 20.2057 0 44.9771 0 69.7355 20.2516 89.9541 44.9771 89.9541Z" fill="url(#fill0)" fill-rule="nonzero" transform="matrix(1.01111 0 0 1 1532.01 1631)"/><path d="M44.1788 54.2C43.1017 54.2 42.3858 53.51 42.3858 52.3871 42.3858 51.8403 42.3858 51.3464 42.3858 50.7996 42.3858 46.9791 44.0631 44.6009 47.8543 41.951 52.3465 38.8295 53.9557 36.8404 53.9557 33.6622 53.9557 29.5553 50.4967 26.5954 45.0413 26.5954 39.9603 26.5954 36.3727 30.137 35.9964 33.8474L35.8312 34.5319C35.6532 35.3026 34.9944 35.7853 34.1154 35.7853 33.2162 35.7853 32.5097 35.1998 32.5097 34.0804 32.5097 33.4198 32.528 32.9372 32.6253 32.3683 33.3153 27.6137 37.9433 23.4097 45.1845 23.4097 52.3668 23.4097 57.7015 27.5514 57.7015 33.4603 57.7015 37.8937 55.6533 40.5804 50.8676 43.8725 47.2012 46.359 45.9185 48.0892 45.9185 51.0142 45.9185 51.5152 45.9185 51.9759 45.9185 52.4566 45.9185 53.4788 45.2432 54.2 44.1788 54.2ZM44.1202 66.5993C42.2261 66.5993 40.6995 65.025 40.6995 63.2433 40.6995 61.4281 42.2133 59.9068 44.1202 59.9068 45.9937 59.9068 47.5075 61.4153 47.5075 63.2433 47.5075 65.0378 45.9809 66.5993 44.1202 66.5993Z" fill="url(#fill1)" fill-rule="nonzero" transform="matrix(1.01111 0 0 1 1532.01 1631)"/></g></g></g></g></g></svg>