<svg width="91" height="90" xmlns="http://www.w3.org/2000/svg" xmlns:xlink="http://www.w3.org/1999/xlink" xml:space="preserve" overflow="hidden"><defs><linearGradient x1="1899.89" y1="1992" x2="1899.89" y2="2081.95" gradientUnits="userSpaceOnUse" spreadMethod="pad" id="fill0"><stop offset="0" stop-color="#8899FD" stop-opacity="1"/><stop offset="1" stop-color="#687BEA" stop-opacity="1"/></linearGradient><linearGradient x1="1899.89" y1="1992" x2="1899.89" y2="2081.95" gradientUnits="userSpaceOnUse" spreadMethod="pad" id="fill1"><stop offset="0" stop-color="#FFFFFF" stop-opacity="1"/><stop offset="1" stop-color="#E2E2E2" stop-opacity="1"/></linearGradient></defs><g transform="translate(-1897 -1992)"><g><g><g><g><path d="M1942.98 2081.95C1967.75 2081.95 1987.99 2061.74 1987.99 2036.98 1987.99 2012.21 1967.75 1992 1942.98 1992 1918.26 1992 1898.01 2012.21 1898.01 2036.98 1898.01 2061.74 1918.26 2081.95 1942.98 2081.95Z" fill="url(#fill0)" fill-rule="nonzero"/><path d="M1922.79 2054.38 1922.79 2031.94 1941.48 2016.26C1942.51 2015.41 1943.47 2015.4 1944.5 2016.26L1963.25 2032.02 1963.25 2054.38C1963.25 2057.08 1961.64 2058.65 1958.98 2058.65L1927.1 2058.65C1924.37 2058.65 1922.79 2057.08 1922.79 2054.38ZM1916.26 2032.24C1916.26 2031.75 1916.45 2031.37 1916.84 2031.03L1939.37 2012.18C1941.6 2010.33 1944.46 2010.33 1946.64 2012.18L1959.35 2022.87 1959.35 2016.87C1959.35 2016.21 1959.75 2015.77 1960.36 2015.77L1962.22 2015.77C1962.82 2015.77 1963.25 2016.21 1963.25 2016.87L1963.25 2026.14 1969.08 2031.03C1969.49 2031.37 1969.66 2031.72 1969.66 2032.27 1969.66 2033.01 1969.04 2033.59 1968.27 2033.59 1967.93 2033.59 1967.68 2033.39 1967.27 2033.1L1944.99 2014.34C1943.59 2013.15 1942.5 2013.12 1941.09 2014.34L1918.67 2033.1C1918.35 2033.39 1918.06 2033.59 1917.65 2033.59 1916.85 2033.59 1916.26 2032.98 1916.26 2032.24ZM1937 2055.99 1948.94 2055.99 1948.94 2040.89C1948.94 2040.02 1948.37 2039.47 1947.49 2039.47L1938.49 2039.47C1937.64 2039.47 1937 2040.02 1937 2040.89Z" fill="url(#fill1)" fill-rule="nonzero"/></g></g></g></g></g></svg>