<svg width="92" height="92" xmlns="http://www.w3.org/2000/svg" xmlns:xlink="http://www.w3.org/1999/xlink" xml:space="preserve" overflow="hidden"><defs><linearGradient x1="1.87909" y1="0" x2="1.87909" y2="89.9541" gradientUnits="userSpaceOnUse" spreadMethod="pad" id="fill0"><stop offset="0" stop-color="#8899FD" stop-opacity="1"/><stop offset="1" stop-color="#687BEA" stop-opacity="1"/></linearGradient><linearGradient x1="1.87909" y1="0" x2="1.87909" y2="89.9541" gradientUnits="userSpaceOnUse" spreadMethod="pad" id="fill1"><stop offset="0" stop-color="#FFFFFF" stop-opacity="1"/><stop offset="1" stop-color="#E2E2E2" stop-opacity="1"/></linearGradient></defs><g transform="translate(-1898 -1636)"><g><g><g><g><path d="M44.9771 89.9541C69.7483 89.9541 89.9872 69.7355 89.9872 44.9771 89.9872 20.2057 69.7483 0 44.9771 0 20.2516 0 0 20.2057 0 44.9771 0 69.7355 20.2516 89.9541 44.9771 89.9541Z" fill="url(#fill0)" fill-rule="nonzero" transform="matrix(1.01111 0 0 1 1899.01 1637)"/><path d="M43.8357 61.6852C43.054 61.6852 42.3106 60.9219 42.3106 60.1601L42.3106 48.2324C27.6799 47.4635 23.2648 34.9503 22.6189 27.8432 22.5858 26.8963 23.2208 26.4541 23.9034 26.4541 30.2913 26.388 40.0095 29.6636 43.7128 39.8735 47.5056 27.456 56.8646 20.0461 68.7389 20.5471 69.9997 20.5471 70.5338 21.371 70.5338 22.2372 70.9686 37.3213 60.8959 47.6525 45.2819 48.2324L45.2819 60.1601C45.2819 60.8888 44.7166 61.6852 43.8357 61.6852ZM42.208 45.3807C40.648 33.3889 31.2712 29.8307 25.7459 29.4086 26.6873 35.7046 30.8106 44.6817 42.208 45.3807ZM45.4157 45.3935C59.0225 44.7493 67.6618 36.222 67.702 23.4447 56.1618 23.3328 47.5864 31.7226 45.4157 45.3935ZM23.1547 69.7171C22.1619 69.7171 21.4113 68.8419 21.4113 67.8948 21.4113 67.0398 22.1619 66.1645 23.1547 66.1645 24.0557 66.1645 24.9108 67.0398 24.9108 67.8948 24.9108 68.8419 24.0557 69.7171 23.1547 69.7171ZM29.3535 65.3441C28.4726 65.3441 27.6101 64.4485 27.6101 63.568 27.6101 62.6337 28.4598 61.7787 29.3535 61.7787 30.3334 61.7787 31.1427 62.6337 31.1427 63.568 31.1427 64.4617 30.3334 65.3441 29.3535 65.3441ZM36.5101 62.8265C35.5632 62.8265 34.7136 61.9385 34.7136 61.0831 34.7136 60.0906 35.5632 59.307 36.5101 59.307 37.424 59.307 38.2864 60.0906 38.2864 61.0831 38.2864 61.9385 37.4369 62.8265 36.5101 62.8265ZM51.1814 62.8265C50.2013 62.8265 49.3719 61.9385 49.3719 61.0831 49.3719 60.0906 50.2013 59.307 51.1814 59.307 52.0624 59.307 52.9249 60.0906 52.9249 61.0831 52.9249 61.9385 52.0624 62.8265 51.1814 62.8265ZM58.2389 65.3441C57.305 65.3441 56.4955 64.4617 56.4955 63.568 56.4955 62.6337 57.305 61.7787 58.2389 61.7787 59.1529 61.7787 60.0282 62.6337 60.0282 63.568 60.0282 64.4485 59.1529 65.3441 58.2389 65.3441ZM64.5166 69.7171C63.5699 69.7171 62.7732 68.8419 62.7732 67.8948 62.7732 67.0398 63.5699 66.1645 64.5166 66.1645 65.4836 66.1645 66.2803 67.0398 66.2803 67.8948 66.2803 68.8419 65.4836 69.7171 64.5166 69.7171Z" fill="url(#fill1)" fill-rule="nonzero" transform="matrix(1.01111 0 0 1 1899.01 1637)"/></g></g></g></g></g></svg>