<svg width="92" height="90" xmlns="http://www.w3.org/2000/svg" xmlns:xlink="http://www.w3.org/1999/xlink" xml:space="preserve" overflow="hidden"><defs><linearGradient x1="1.87909" y1="0.045876" x2="1.87909" y2="90" gradientUnits="userSpaceOnUse" spreadMethod="pad" id="fill0"><stop offset="0" stop-color="#8899FD" stop-opacity="1"/><stop offset="1" stop-color="#687BEA" stop-opacity="1"/></linearGradient><linearGradient x1="1.87909" y1="0.045876" x2="1.87909" y2="90" gradientUnits="userSpaceOnUse" spreadMethod="pad" id="fill1"><stop offset="0" stop-color="#FFFFFF" stop-opacity="1"/><stop offset="1" stop-color="#E2E2E2" stop-opacity="1"/></linearGradient></defs><g transform="translate(-2262 -1992)"><g><g><g><g><path d="M44.9771 90C69.7483 90 89.9872 69.7942 89.9872 45.0229 89.9872 20.2645 69.7483 0.045876 44.9771 0.045876 20.2516 0.045876 0 20.2645 0 45.0229 0 69.7942 20.2516 90 44.9771 90Z" fill="url(#fill0)" fill-rule="nonzero" transform="matrix(1.01111 0 0 1 2263.01 1992)"/><path d="M18.991 61.6833 18.991 49.3647C18.991 45.3439 19.9892 43.3659 21.7564 41.114L23.7694 38.4645C24.5952 34.3081 26.1366 29.981 26.9165 28.3093 28.1423 25.7329 30.4563 24.5621 33.0162 24.1951 34.5632 24.0116 39.8299 23.907 44.9898 23.907 50.2032 23.907 55.4827 24.0116 57.0168 24.1951 59.5896 24.575 61.9035 25.7329 63.1167 28.3093 63.8965 29.981 65.3719 34.3081 66.2435 38.4645L68.2766 41.114C70.0437 43.3659 71.0419 45.3439 71.0419 49.3647L71.0419 61.6833C71.0419 63.2888 69.7904 64.5402 68.1519 64.5402L65.6031 64.5402C64.0175 64.5402 62.7329 63.2888 62.7329 61.6833L62.7329 58.0589C57.7379 58.3674 50.5666 58.5839 44.9898 58.5839 39.4792 58.5839 32.295 58.3674 27.267 58.0589L27.267 61.6833C27.267 63.2888 26.0155 64.5402 24.4429 64.5402L21.861 64.5402C20.2425 64.5402 18.991 63.2888 18.991 61.6833ZM27.6488 36.7633C27.4983 37.3193 27.7075 37.8057 28.5333 37.7268 32.5226 37.4515 36.7451 37.268 44.9898 37.268 53.2879 37.268 57.5234 37.4515 61.4999 37.7268 62.3256 37.8057 62.5146 37.3193 62.3842 36.7633 61.6942 33.5777 60.6979 30.7407 59.9564 29.5406 59.248 28.3001 58.2682 27.4909 56.5267 27.2872 54.7029 27.045 50.6545 26.9661 44.9898 26.9661 39.3781 26.9661 35.3302 27.0578 33.519 27.2872 31.7446 27.4909 30.7518 28.3001 30.0894 29.5406 29.348 30.7536 28.3516 33.5777 27.6488 36.7633ZM25.498 49.2452C25.498 51.0198 26.7936 52.2491 28.502 52.2491 30.2105 52.2491 31.506 51.0198 31.506 49.2452 31.506 47.5368 30.2105 46.2541 28.502 46.2541 26.7936 46.2541 25.498 47.5368 25.498 49.2452ZM37.235 49.7793C37.235 51.0289 38.0921 51.9188 39.3417 51.9188L50.6711 51.9188C51.941 51.9188 52.7982 51.0289 52.7982 49.7793 52.7982 48.5094 51.941 47.6525 50.6711 47.6525L39.3417 47.6525C38.0921 47.6525 37.235 48.5094 37.235 49.7793ZM58.5399 49.2452C58.5399 51.0198 59.8226 52.2491 61.5311 52.2491 63.2523 52.2491 64.5478 51.0198 64.5478 49.2452 64.5478 47.5368 63.2523 46.2541 61.5311 46.2541 59.8226 46.2541 58.5399 47.5368 58.5399 49.2452Z" fill="url(#fill1)" fill-rule="nonzero" transform="matrix(1.01111 0 0 1 2263.01 1992)"/></g></g></g></g></g></svg>