<svg width="21" height="36" xmlns="http://www.w3.org/2000/svg" xmlns:xlink="http://www.w3.org/1999/xlink" xml:space="preserve" overflow="hidden"><g transform="translate(-1497 -2620)"><g><g><g><g><path d="M12.9718 17.5049 12.0307 18.1632 11.6925 17.1168C11.1282 15.3767 8.75596 15.3767 8.19166 17.1168L7.84282 18.1963 6.86028 17.5007 6.86028 1.35399 12.9718 1.35399ZM19.7998 3.09958 19.7998 11.3509C19.7998 12.3306 19.5127 12.9045 18.7771 13.4247L14.0841 16.7311 14.0841 1.35399 18.0541 1.35399C19.1107 1.35399 19.7998 2.04969 19.7998 3.09958ZM5.74799 16.7269 1.05926 13.4247C0.327851 12.9045 0.0366178 12.3457 0.0366178 11.3509L0.0366178 3.09958C0.0366178 2.04969 0.710517 1.35399 1.76041 1.35399L5.74799 1.35399Z" fill="#DDFC79" fill-rule="nonzero" fill-opacity="1" transform="matrix(1.00714 0 0 1 1498 2621.04)"/><path d="M5.27638 33.4832 9.93664 30.0823 14.6078 33.4832C15.0933 33.8441 15.6614 33.4965 15.4591 32.8704L13.6573 27.3795 18.3521 24.0173C18.7293 23.7431 18.6396 22.9874 17.999 22.9916L12.2289 23.0044 10.4701 17.5049C10.2939 16.9636 9.59031 16.9636 9.41411 17.5049L7.65524 23.0044 1.88515 22.9916C1.27724 22.9874 1.08531 23.6952 1.55395 24.0283L6.22693 27.3795 4.44686 32.8704C4.23373 33.4965 4.80167 33.8441 5.27638 33.4832Z" fill="#DDFC79" fill-rule="nonzero" fill-opacity="1" transform="matrix(1.00714 0 0 1 1498 2621.04)"/></g></g></g></g></g></svg>