<svg width="82" height="75" xmlns="http://www.w3.org/2000/svg" xmlns:xlink="http://www.w3.org/1999/xlink" xml:space="preserve" overflow="hidden"><defs><linearGradient x1="1.5037" y1="0" x2="1.5037" y2="73.9531" gradientUnits="userSpaceOnUse" spreadMethod="pad" id="fill0"><stop offset="0" stop-color="#8899FD" stop-opacity="1"/><stop offset="1" stop-color="#687BEA" stop-opacity="1"/></linearGradient><linearGradient x1="1.5037" y1="0" x2="1.5037" y2="73.9531" gradientUnits="userSpaceOnUse" spreadMethod="pad" id="fill1"><stop offset="0" stop-color="#FFFFFF" stop-opacity="1"/><stop offset="1" stop-color="#E2E2E2" stop-opacity="1"/></linearGradient></defs><g transform="translate(-1468 -2861)"><g><g><g><g><path d="M9.2866 67.3831C9.2866 71.5081 11.7624 73.9531 15.9079 73.9531L65.0028 73.9531C69.1482 73.9531 71.6139 71.5081 71.6139 67.3831L71.6139 32.7893 42.7586 8.55252C41.152 7.2192 39.6588 7.25589 38.0625 8.55252L9.2866 32.7102ZM1.41272 34.4765C1.88559 34.4765 2.1749 34.296 2.52294 34.0155L38.8216 3.53766C39.3313 3.10153 39.8877 2.86511 40.4501 2.86511 41.023 2.86511 41.5691 3.10153 42.0786 3.53766L78.3878 34.0155C78.7255 34.296 79.0148 34.4765 79.5141 34.4765 80.36 34.4765 80.9005 33.8907 80.9005 33.1785 80.9005 32.7304 80.7287 32.3518 80.2542 31.9551L43.7982 1.36568C42.7204 0.455227 41.5854 0 40.4501 0 39.3151 0 38.1798 0.455227 37.1284 1.36568L0.646142 31.9551C0.182096 32.3518 0 32.7304 0 33.1785 0 33.8907 0.540417 34.4765 1.41272 34.4765ZM65.7501 21.1941 71.7667 26.281 71.7667 11.0986C71.7667 10.1176 71.1087 9.51261 70.1806 9.51261L67.3362 9.51261C66.4184 9.51261 65.7501 10.1176 65.7501 11.0986Z" fill="url(#fill0)" fill-rule="nonzero" transform="matrix(1.001 0 0 1 1469.01 2862)"/><path d="M29.9757 59.1907 29.9757 31.221C29.9757 29.8921 31.415 29.3209 32.5882 30.0331L55.9719 43.7733C57.1084 44.4283 57.1186 45.9732 55.9821 46.6751L32.5882 60.4418C31.415 61.1013 29.9757 60.5196 29.9757 59.1907Z" fill="url(#fill1)" fill-rule="nonzero" transform="matrix(1.001 0 0 1 1469.01 2862)"/></g></g></g></g></g></svg>