<svg width="73" height="75" xmlns="http://www.w3.org/2000/svg" xmlns:xlink="http://www.w3.org/1999/xlink" xml:space="preserve" overflow="hidden"><defs><linearGradient x1="1.52436" y1="0.0431673" x2="1.52436" y2="73.043" gradientUnits="userSpaceOnUse" spreadMethod="pad" id="fill0"><stop offset="0" stop-color="#B0B0B4" stop-opacity="1"/><stop offset="1" stop-color="#98989D" stop-opacity="1"/></linearGradient></defs><g transform="translate(-1732 -2861)"><g><g><g><g><path d="M73 36.5299C73 56.625 56.5817 73.043 36.4866 73.043 16.4286 73.043 0 56.625 0 36.5299 0 16.445 16.4286 0.0431673 36.4866 0.0431673 56.5817 0.0431673 73 16.445 73 36.5299ZM22.1212 51.483C21.4736 51.7375 21.097 52.3479 21.097 53.2025L21.097 57.7161C21.097 58.889 21.7386 59.5679 22.9489 59.5679L23.3687 59.5679C24.5685 59.5679 25.2578 58.889 25.2578 57.7161L25.2578 53.2025C25.2578 52.3049 24.8439 51.7482 24.1532 51.4937L24.1532 50.2611C23.4699 49.8635 22.7583 49.3275 22.1212 48.7708ZM42.0243 42.6703C40.0103 43.5843 38.2088 44.0682 36.4762 44.0041 34.7701 44.0682 32.969 43.5843 30.9547 42.6703L24.1532 39.5917 24.1532 50.2611C27.0233 52.004 31.1958 53.2339 36.4762 53.2339 47.2004 53.2339 53.347 48.1843 53.347 44.3526L53.347 37.5091ZM19.6054 44.3526C19.6054 45.7011 20.4882 47.294 22.1212 48.7708L22.1212 38.6259 19.6054 37.5091ZM31.6486 19.79 12.7324 28.4717C11.9271 28.832 11.5028 29.5316 11.5028 30.3072 11.5028 31.0233 11.9271 31.7022 12.7324 32.0623L21.9932 36.3497 32.6638 30.9949C32.4821 30.776 32.4181 30.5096 32.4181 30.2536 32.4181 29.0791 34.3741 28.0996 36.497 28.0996 38.657 28.0996 40.5655 29.0791 40.5655 30.2536 40.5655 31.519 38.6838 32.4391 36.497 32.4391 35.7409 32.4391 35.065 32.3644 34.4903 32.1351L24.2544 37.4006 31.6486 40.7917C33.6702 41.7176 35.0412 41.9825 36.4762 41.9722 37.9381 41.9825 39.3731 41.6908 41.3307 40.7917L60.2569 32.0623C61.0624 31.7022 61.4764 31.0233 61.4764 30.3072 61.4764 29.5316 61.0624 28.832 60.2569 28.4717L41.3307 19.79C39.3731 18.9176 37.9381 18.5619 36.4762 18.5991 35.0412 18.5619 33.6165 18.9176 31.6486 19.79Z" fill="url(#fill0)" fill-rule="nonzero" transform="matrix(1 0 0 1.00947 1732 2862.13)"/></g></g></g></g></g></svg>