<svg width="75" height="79" xmlns="http://www.w3.org/2000/svg" xmlns:xlink="http://www.w3.org/1999/xlink" xml:space="preserve" overflow="hidden"><defs><linearGradient x1="1.56187" y1="0" x2="1.56187" y2="69.8176" gradientUnits="userSpaceOnUse" spreadMethod="pad" id="fill0"><stop offset="0" stop-color="#B0B0B4" stop-opacity="1"/><stop offset="1" stop-color="#98989D" stop-opacity="1"/></linearGradient><linearGradient x1="1.56187" y1="0" x2="1.56187" y2="69.8176" gradientUnits="userSpaceOnUse" spreadMethod="pad" id="fill1"><stop offset="0" stop-color="#B0B0B4" stop-opacity="1"/><stop offset="1" stop-color="#98989D" stop-opacity="1"/></linearGradient><linearGradient x1="1.56187" y1="0" x2="1.56187" y2="69.8176" gradientUnits="userSpaceOnUse" spreadMethod="pad" id="fill2"><stop offset="0" stop-color="#B0B0B4" stop-opacity="1"/><stop offset="1" stop-color="#98989D" stop-opacity="1"/></linearGradient><linearGradient x1="1.56187" y1="0" x2="1.56187" y2="69.8176" gradientUnits="userSpaceOnUse" spreadMethod="pad" id="fill3"><stop offset="0" stop-color="#B0B0B4" stop-opacity="1"/><stop offset="1" stop-color="#98989D" stop-opacity="1"/></linearGradient><linearGradient x1="1.56187" y1="0" x2="1.56187" y2="69.8176" gradientUnits="userSpaceOnUse" spreadMethod="pad" id="fill4"><stop offset="0" stop-color="#B0B0B4" stop-opacity="1"/><stop offset="1" stop-color="#98989D" stop-opacity="1"/></linearGradient></defs><g transform="translate(-1986 -2861)"><g><g><g><g><path d="M73.8153 68.4144C73.8153 69.2244 73.2006 69.8176 72.3906 69.8176L1.40331 69.8176C0.593359 69.8176 0 69.2244 0 68.4144 0 67.5769 0.593359 67.0003 1.40331 67.0003L72.3906 67.0003C73.2006 67.0003 73.8153 67.5769 73.8153 68.4144Z" fill="url(#fill0)" fill-rule="nonzero" transform="matrix(1.00176 0 0 1 1987.03 2862)"/><path d="M73.8153 48.4715C73.8153 49.2815 73.2006 49.8746 72.3906 49.8746L1.40331 49.8746C0.593359 49.8746 0 49.2815 0 48.4715 0 47.6234 0.593359 47.0302 1.40331 47.0302L72.3906 47.0302C73.2006 47.0302 73.8153 47.6234 73.8153 48.4715Z" fill="url(#fill1)" fill-rule="nonzero" transform="matrix(1.00176 0 0 1 1987.03 2862)"/><path d="M73.8153 28.4905C73.8153 29.3279 73.2006 29.9045 72.3906 29.9045L45.4546 29.9045C44.6446 29.9045 44.0514 29.3279 44.0514 28.4905 44.0514 27.6805 44.6446 27.0871 45.4546 27.0871L72.3906 27.0871C73.2006 27.0871 73.8153 27.6805 73.8153 28.4905Z" fill="url(#fill2)" fill-rule="nonzero" transform="matrix(1.00176 0 0 1 1987.03 2862)"/><path d="M73.8153 8.54763C73.8153 9.35758 73.2006 9.95094 72.3906 9.95094L45.4546 9.95094C44.6446 9.95094 44.0514 9.35758 44.0514 8.54763 44.0514 7.71022 44.6446 7.13363 45.4546 7.13363L72.3906 7.13363C73.2006 7.13363 73.8153 7.71022 73.8153 8.54763Z" fill="url(#fill3)" fill-rule="nonzero" transform="matrix(1.00176 0 0 1 1987.03 2862)"/><path d="M36.858 18.41C36.858 28.5164 28.4951 36.8308 18.4481 36.8308 8.35849 36.8308 0.0381316 28.5378 0.0381316 18.41 0.0381316 8.35849 8.35849 0 18.4481 0 28.5546 0 36.858 8.30357 36.858 18.41ZM17.1898 6.07671 14.7494 13.5612 6.85612 13.5612C6.06603 13.5612 5.53828 13.8556 5.53828 14.6944 5.53828 15.1246 5.82657 15.5715 6.16974 15.8003L12.5377 20.4905 10.0973 27.7675C10.0592 27.8926 10.021 28.1382 10.021 28.4264 10.021 29.1891 10.6037 29.6421 11.2794 29.6421 11.5844 29.6421 11.8514 29.5765 12.0527 29.4514L18.4481 24.81 24.8161 29.4514C25.0174 29.5871 25.3118 29.6421 25.5788 29.6421 26.32 29.6421 26.8203 29.064 26.8203 28.3395 26.8203 28.187 26.7715 27.9475 26.7334 27.795L24.3204 20.4905 30.6884 15.8003C31.0316 15.5715 31.3749 15.1246 31.3749 14.6944 31.3749 13.8556 30.8028 13.5612 30.0127 13.5612L22.1469 13.5612 19.7065 6.07671C19.4502 5.35219 18.982 5.09595 18.4481 5.09595 17.9143 5.09595 17.4186 5.35219 17.1898 6.07671Z" fill="url(#fill4)" fill-rule="nonzero" transform="matrix(1.00176 0 0 1 1987.03 2862)"/></g></g></g></g></g></svg>