<svg width="75" height="75" xmlns="http://www.w3.org/2000/svg" xmlns:xlink="http://www.w3.org/1999/xlink" xml:space="preserve" overflow="hidden"><defs><linearGradient x1="2243.55" y1="2862" x2="2243.55" y2="2935.96" gradientUnits="userSpaceOnUse" spreadMethod="pad" id="fill0"><stop offset="0" stop-color="#B0B0B4" stop-opacity="1"/><stop offset="1" stop-color="#98989D" stop-opacity="1"/></linearGradient></defs><g transform="translate(-2241 -2861)"><g><g><g><g><path d="M2278.99 2935.96C2299.44 2935.96 2315.99 2919.4 2315.99 2898.98 2315.99 2878.53 2299.44 2862 2278.99 2862 2258.56 2862 2242.01 2878.53 2242.01 2898.98 2242.01 2919.4 2258.56 2935.96 2278.99 2935.96ZM2278.99 2933.08C2260.14 2933.08 2244.89 2917.82 2244.89 2898.98 2244.89 2880.11 2260.14 2864.85 2278.99 2864.85 2297.86 2864.85 2313.11 2880.11 2313.11 2898.98 2313.11 2917.82 2297.86 2933.08 2278.99 2933.08ZM2304.35 2923.21 2304.35 2923.02C2301.93 2917.82 2292.27 2911.34 2278.99 2911.34 2265.77 2911.34 2256.11 2917.77 2253.62 2922.9L2253.59 2923.21C2260.14 2930.04 2269.57 2934.39 2279.01 2934.39 2288.53 2934.39 2297.51 2930.18 2304.35 2923.21ZM2278.99 2904.82C2286.21 2904.82 2291.73 2898.66 2291.73 2890.63 2291.73 2883.12 2286.09 2876.77 2278.99 2876.77 2271.85 2876.77 2266.17 2883.12 2266.21 2890.63 2266.22 2898.66 2271.74 2904.8 2278.99 2904.82Z" fill="url(#fill0)" fill-rule="nonzero"/></g></g></g></g></g></svg>